<svg xmlns="http://www.w3.org/2000/svg" viewBox="0 0 122.88 120.01" style="enable-background:new 0 0 122.88 120.01" xmlSpace="preserve"><path fill="#919191"  d="M39.44 42.56c-1.23.05-2.16.3-2.8.73-.36.24-.63.56-.8.93-.19.41-.28.91-.26 1.49.05 1.69.93 3.9 2.64 6.44l.02.04L43.8 61c2.23 3.54 4.56 7.15 7.46 9.8 2.79 2.55 6.17 4.27 10.64 4.29 4.84.01 8.39-1.78 11.26-4.47 2.99-2.8 5.35-6.64 7.68-10.47l6.25-10.3c1.17-2.66 1.59-4.44 1.32-5.48-.16-.62-.84-.93-2.01-.98-.25-.01-.5-.02-.76-.01-.28.01-.57.03-.87.05-.17.02-.33 0-.48-.03-.56.03-1.13-.01-1.71-.09l2.14-9.48c-15.89 2.5-27.77-9.3-44.57-2.36l1.21 11.17c-.69.03-1.33 0-1.92-.08zM49.5 90.53c-3.06-3.48-3.32-7.13 0-10.99 3.76.95 7.21 2.56 10.39 4.74.76-.25 1.61-.31 2.44-.19 3.37-2.43 7.71-3.39 11.49-5.2 4.48 4.36 4 8.38-.41 12.12-2.66-.61-5.18-1.58-7.58-2.85-.03.65-.19 1.37-.51 2.17l4.9 17c3.79-7.96 7.73-15.87 8.63-24.91-1.5-1.76-3.09-4.09-4.47-6.11-.41-.6-.79-1.16-1.16-1.69-3.03 2.22-6.67 3.61-11.33 3.59-5.01-.01-8.87-1.8-12.06-4.5-.02.03-.04.07-.06.1-.52.72-1.1 1.57-1.73 2.49-1.18 1.73-2.5 3.67-3.8 5.3 1.68 10.48 5.7 17.85 9.34 25.72l4.9-17c-.63-1.06-.92-1.98-.96-2.78-2.51 1.43-5.21 2.36-8.02 2.99zm25.66-17.5c.39.56.83 1.2 1.29 1.87.86 1.26 1.81 2.65 2.75 3.92 6.5 5.61 25.09 6.77 32.04 10.65 2.21 1.23 4.22 2.81 5.83 4.93 2.44 3.22 3.94 7.44 4.35 12.79l1.46 6.53c-.36 3.78-2.5 5.96-6.73 6.29H6.73c-4.22-.32-6.37-2.5-6.73-6.29l1.46-6.53c.41-5.35 1.91-9.56 4.35-12.79 1.61-2.13 3.61-3.7 5.83-4.93 6.6-3.68 23.69-4.91 30.97-9.83 1.14-1.47 2.31-3.2 3.37-4.74.65-.96 1.26-1.85 1.77-2.55.09-.12.19-.22.31-.3-2.69-2.76-4.85-6.1-6.91-9.38l-5.55-8.83c-2.03-3.03-3.08-5.79-3.15-8.06-.03-1.07.15-2.04.54-2.89.41-.89 1.05-1.64 1.91-2.22.4-.27.85-.5 1.35-.69-.36-4.79-.49-10.82-.26-15.87.12-1.2.35-2.4.68-3.59 1.42-5.07 4.98-9.15 9.38-11.95 1.55-.99 3.25-1.81 5.05-2.46 3.19-1.16 1.64-6.04 5.18-6.12 8.29-.19 21.87 6.82 27.17 12.55 3.08 3.34 5.02 7.75 5.43 13.6l-.35 14.4c1.54.47 2.52 1.44 2.93 3.02.45 1.75-.04 4.22-1.52 7.58l-.09.18-6.33 10.42c-2.44 4.01-4.91 8.04-8.22 11.13l-.14.16z" style="fill-rule:evenodd;clip-rule:evenodd"/></svg>